<?xml version="1.0" encoding="UTF-8" standalone="no"?>
<svg
   xmlns:dc="http://purl.org/dc/elements/1.1/"
   xmlns:cc="http://creativecommons.org/ns#"
   xmlns:rdf="http://www.w3.org/1999/02/22-rdf-syntax-ns#"
   xmlns:svg="http://www.w3.org/2000/svg"
   xmlns="http://www.w3.org/2000/svg"
   viewBox="0 0 180.65401 180.65413"
   height="180.65413"
   width="180.65401"
   xml:space="preserve"
   id="svg4485"
   version="1.1"><metadata
     id="metadata4491"><rdf:RDF><cc:Work
         rdf:about=""><dc:format>image/svg+xml</dc:format><dc:type
           rdf:resource="http://purl.org/dc/dcmitype/StillImage" /><dc:title></dc:title></cc:Work></rdf:RDF></metadata><defs
     id="defs4489" /><g
     transform="matrix(1.3333333,0,0,-1.3333333,-15.272667,218.29067)"
     id="g4493"><g
       id="g4495"><g
         transform="matrix(1,0,0,-1,0,193.5)"
         id="g4497"><path
           id="path4499"
           style="fill:#2d87b5;fill-opacity:1;fill-rule:nonzero;stroke:#2d87b5;stroke-width:1.54160094;stroke-linecap:butt;stroke-linejoin:round;stroke-miterlimit:4;stroke-dasharray:none;stroke-opacity:1"
           d="m 128.438,54.449 c 23.867,26.981 21.343,68.203 -5.637,92.071 C 95.82,170.391 54.598,167.867 30.727,140.887 6.859,113.902 9.383,72.684 36.363,48.813 63.344,24.945 104.566,27.469 128.438,54.449 Z" /></g><g
         transform="matrix(1,0,0,-1,0,193.5)"
         id="g4501"><path
           id="path4503"
           style="fill:#000000;fill-opacity:1;fill-rule:nonzero;stroke:#2d87b5;stroke-width:1.31246197;stroke-linecap:butt;stroke-linejoin:round;stroke-miterlimit:4;stroke-dasharray:none;stroke-opacity:1"
           d="m 128.477,71.34 c 14.539,27 4.437,60.68 -22.567,75.223 C 78.906,161.102 45.23,151 30.688,123.996 16.148,96.992 26.25,63.316 53.254,48.773 80.258,34.234 113.934,44.336 128.477,71.34 Z" /></g><path
         id="path4505"
         style="fill:#2d87b5;fill-opacity:1;fill-rule:nonzero;stroke:none"
         d="m 104.863,103.289 c 0,0 -2.152,0.047 -3.633,0.047 -2.304,0.105 -5.242,0.027 -5.355,-4.031 0.074,-1.098 0.582,-2.032 1.531,-2.797 0.949,-0.766 1.899,-1.5 2.848,-2.207 0.949,-0.703 2.402,-1.465 2.473,-2.375 0.296,-1.25 -1.145,-2.957 -3.161,-2.606 -1.269,0.145 -2.742,0.391 -3.636,1.078 l 0.027,-2.433 c 0,0 1.938,-0.035 3.609,-0.047 1.633,0 3,-0.152 3.723,0.379 1.086,0.683 2,2.351 2.043,3.703 -0.035,0.973 -0.367,1.805 -1.004,2.496 -0.633,0.688 -1.367,1.305 -2.203,1.848 -0.836,0.543 -1.574,1.082 -2.207,1.621 -0.637,0.539 -1.383,1.164 -1.555,1.816 -0.492,1.875 1.629,2.071 2.77,2.153 0.988,0.074 2.601,-0.079 3.699,-0.981 z" /><path
         id="path4507"
         style="fill:#2d87b5;fill-opacity:1;fill-rule:nonzero;stroke:none"
         d="m 43.027,95.086 -0.066,-7.191 c 0,0 -3.137,0 -5.004,-0.02 -1.266,0 -2.371,0.332 -3.312,0.996 -0.942,0.664 -1.649,1.609 -2.125,2.844 -0.473,1.234 -0.707,2.574 -0.707,4.023 0,1.575 0.261,2.969 0.792,4.192 0.528,1.222 1.301,2.16 2.321,2.812 0.777,0.504 2.765,0.567 2.765,0.567 0,0 4.473,-0.157 5.289,-0.012 L 43,101.09 c -5.02,2.433 -8.566,-0.598 -8.379,-6.125 0.152,-2.274 1.219,-4.949 3.676,-5.344 1.5,-0.242 1.738,-0.187 2.351,-0.234 l 0.063,5.683 c 0,0 -1.5,-0.023 2.316,0.016 z" /><path
         id="path4509"
         style="fill:#2d87b5;fill-opacity:1;fill-rule:nonzero;stroke:none"
         d="m 43.879,87.902 v 15.336 h 5.598 c 1.406,0 2.429,-0.136 3.066,-0.414 0.637,-0.273 1.148,-0.765 1.531,-1.469 0.383,-0.703 0.574,-1.511 0.574,-2.417 0,-1.149 -0.289,-2.098 -0.871,-2.848 -0.578,-0.75 -3.464,-1.352 -3.464,-1.352 l 5.406,-6.836 h -3.18 c 0,0 -4.871,5.758 -6.035,7.43 l 0.035,-7.43 z m 2.66,7.758 c 0,0 3.449,0.313 4.356,1.215 0.316,0.125 0.566,0.406 0.746,0.715 0.179,0.305 0.269,0.691 0.269,1.148 0,0.52 -0.117,0.934 -0.355,1.254 -0.887,1.844 -3.012,1.844 -5.016,1.778 z" /><path
         id="path4511"
         style="fill:#2d87b5;fill-opacity:1;fill-rule:nonzero;stroke:none"
         d="M 69.449,88 H 66.563 L 62.18,100.898 57.953,87.965 56.266,88 l 5.117,15.305 h 2.805 z" /><path
         id="path4513"
         style="fill:#2d87b5;fill-opacity:1;fill-rule:nonzero;stroke:none"
         d="m 70.215,87.945 v 15.434 h 2.601 l 6.266,-10.258 0.094,10.223 1.551,0.035 V 87.945 H 78.043 L 71.762,98.48 71.809,87.965 Z" /><path
         id="path4515"
         style="fill:#2d87b5;fill-opacity:1;fill-rule:nonzero;stroke:none"
         d="M 94.762,88 H 91.875 L 87.492,100.898 83.266,87.965 81.578,88 86.695,103.305 H 89.5 Z" /><path
         id="path4517"
         style="fill:#2d87b5;fill-opacity:1;fill-rule:nonzero;stroke:none"
         d="m 119.977,88 h -2.887 l -4.383,12.898 -4.227,-12.933 -1.687,0.035 5.117,15.305 h 2.805 z" /><path
         id="path4519"
         style="fill:#2d87b5;fill-opacity:1;fill-rule:nonzero;stroke:none"
         d="m 59.094,128.793 c -1.242,-0.199 -2.391,-0.531 -3.446,-0.984 -5.152,-2.227 -6.988,-7.239 -5.863,-13.684 l 2.207,-0.5 c -1.32,6.918 0.473,12.313 5.766,14.676 0.422,0.187 0.879,0.347 1.336,0.492 z m -6.606,-17.316 -0.207,-0.204 0.008,-2.367 0.012,0.012 v -0.148 l -1.149,0.335 c 2.407,-6.617 7.332,-14.203 14.528,-21.679 6.269,-6.516 13.347,-12.039 20.367,-16.125 -6.32,4.054 -12.621,9.254 -18.258,15.304 -8.086,8.672 -13.305,17.493 -15.301,24.872 z" /><path
         id="path4521"
         style="fill:#2d87b5;fill-opacity:1;fill-rule:nonzero;stroke:none"
         d="m 110.445,64.363 c 1.243,0.196 2.391,0.528 3.446,0.985 11.246,4.859 6.754,22.933 -10.032,40.382 -6.269,6.512 -13.351,12.036 -20.367,16.125 6.317,-4.058 12.617,-9.257 18.258,-15.304 16.785,-18.012 21.277,-36.68 10.031,-41.696 -0.426,-0.191 -0.883,-0.347 -1.336,-0.492 z" /><path
         id="path4523"
         style="fill:#e20000;fill-opacity:1;fill-rule:nonzero;stroke:none"
         d="m 89.191,90.113 c -0.644,-0.843 -1.746,-1.156 -2.253,-0.929 -0.508,0.23 -0.465,1.339 0.718,2.074 11.371,8.101 8.887,8.117 1.535,-1.145 z" /><path
         id="path4525"
         style="fill:#2d87b5;fill-opacity:1;fill-rule:nonzero;stroke:none"
         d="m 52.277,112.574 0.008,-3.797 c 0.047,-0.093 0.051,-0.015 0.059,0.051 l 2.117,1.891 -0.004,4.015 z" /><path
         id="path4527"
         style="fill:#ffffff;fill-opacity:1;fill-rule:nonzero;stroke:none"
         d="m 108.82,126.805 -0.371,3.699 -3.707,0.258 3.699,0.367 0.258,3.711 0.367,-3.699 3.707,-0.258 -3.699,-0.367 z" /><path
         id="path4529"
         style="fill:#ffffff;fill-opacity:1;fill-rule:nonzero;stroke:none"
         d="m 119.16,111.957 -0.367,3.699 -3.707,0.258 3.695,0.367 0.258,3.707 0.367,-3.699 3.711,-0.254 -3.699,-0.371 z" /><path
         id="path4531"
         style="fill:#ffffff;fill-opacity:1;fill-rule:nonzero;stroke:none"
         d="m 87.34,133.438 -0.367,3.695 -3.707,0.258 3.699,0.367 0.254,3.711 0.371,-3.699 3.707,-0.258 -3.699,-0.367 z" /><path
         id="path4533"
         style="fill:#ffffff;fill-opacity:1;fill-rule:nonzero;stroke:none"
         d="m 73.023,118.852 -0.371,3.699 -3.707,0.258 3.7,0.367 0.257,3.707 0.368,-3.699 3.707,-0.254 -3.7,-0.371 z" /><path
         id="path4535"
         style="fill:#ffffff;fill-opacity:1;fill-rule:nonzero;stroke:none"
         d="m 38.285,111.691 -0.367,3.7 -3.711,0.257 3.699,0.368 0.258,3.707 0.367,-3.7 3.711,-0.253 -3.699,-0.368 z" /><path
         id="path4537"
         style="fill:#ffffff;fill-opacity:1;fill-rule:nonzero;stroke:none"
         d="m 65.863,53.09 -0.367,3.699 -3.711,0.258 3.699,0.367 0.258,3.707 0.367,-3.695 3.707,-0.258 -3.699,-0.367 z" /><path
         id="path4539"
         style="fill:#ffffff;fill-opacity:1;fill-rule:nonzero;stroke:none"
         d="m 94.234,56.539 -0.367,3.699 -3.707,0.254 3.699,0.371 0.254,3.707 0.367,-3.699 3.711,-0.258 -3.699,-0.367 z" /><path
         id="path4541"
         style="fill:#ffffff;fill-opacity:1;fill-rule:nonzero;stroke:none"
         d="m 56.582,73.508 -0.367,3.699 -3.711,0.258 3.699,0.367 0.258,3.707 0.367,-3.699 3.711,-0.254 -3.699,-0.367 z" /><path
         id="path4543"
         style="fill:#ffffff;fill-opacity:1;fill-rule:nonzero;stroke:none"
         d="m 69.277,106.918 -0.172,1.746 -1.75,0.121 1.743,0.176 0.121,1.746 0.176,-1.742 1.75,-0.121 -1.747,-0.176 z" /><path
         id="path4545"
         style="fill:#ffffff;fill-opacity:1;fill-rule:nonzero;stroke:none"
         d="m 49.688,60.25 -0.368,3.699 -3.711,0.258 3.7,0.367 0.257,3.707 0.368,-3.699 3.711,-0.254 -3.7,-0.371 z" /><path
         id="path4547"
         style="fill:#ffffff;fill-opacity:1;fill-rule:nonzero;stroke:none"
         d="m 90.758,105.594 -0.176,1.746 -1.75,0.121 1.746,0.172 0.121,1.75 0.172,-1.746 1.75,-0.121 -1.742,-0.172 z" /><path
         id="path4549"
         style="fill:#ffffff;fill-opacity:1;fill-rule:nonzero;stroke:none"
         d="m 74.848,131.578 -0.176,1.746 -1.75,0.121 1.746,0.176 0.121,1.746 0.172,-1.742 1.75,-0.121 -1.742,-0.176 z" /><path
         id="path4551"
         style="fill:#ffffff;fill-opacity:1;fill-rule:nonzero;stroke:none"
         d="m 125.492,78.813 -0.172,1.746 -1.75,0.117 1.746,0.176 0.118,1.75 0.175,-1.747 1.75,-0.121 -1.746,-0.171 z" /><path
         id="path4553"
         style="fill:#ffffff;fill-opacity:1;fill-rule:nonzero;stroke:none"
         d="m 119.129,123.625 -0.176,1.746 -1.746,0.121 1.742,0.172 0.121,1.75 0.176,-1.746 1.75,-0.121 -1.746,-0.172 z" /><path
         id="path4555"
         style="fill:#ffffff;fill-opacity:1;fill-rule:nonzero;stroke:none"
         d="m 80.945,60.781 -0.175,1.746 -1.747,0.118 1.743,0.175 0.121,1.75 0.176,-1.746 1.75,-0.121 -1.747,-0.172 z" /><path
         id="path4557"
         style="fill:#ffffff;fill-opacity:1;fill-rule:nonzero;stroke:none"
         d="m 95.527,121.238 -0.172,1.746 -1.75,0.121 1.747,0.172 0.121,1.75 0.172,-1.746 1.75,-0.121 -1.747,-0.172 z" /><path
         id="path4559"
         style="fill:#ffffff;fill-opacity:1;fill-rule:nonzero;stroke:none"
         d="m 57.875,134.23 -0.172,1.747 -1.75,0.121 1.746,0.172 0.117,1.75 0.176,-1.743 1.75,-0.121 -1.746,-0.176 z" /><path
         id="path4561"
         style="fill:#ffffff;fill-opacity:1;fill-rule:nonzero;stroke:none"
         d="m 90.227,72.184 -0.176,1.742 -1.75,0.121 1.746,0.176 0.121,1.75 0.176,-1.746 1.75,-0.122 -1.746,-0.171 z" /><path
         id="path4563"
         style="fill:#ffffff;fill-opacity:1;fill-rule:nonzero;stroke:none"
         d="m 106.93,75.098 -0.172,1.746 -1.75,0.121 1.746,0.176 0.121,1.75 0.172,-1.746 1.75,-0.122 -1.746,-0.175 z" /><g
         transform="matrix(1,0,0,-1,0,193.5)"
         id="g4565"><path
           id="path4567"
           style="fill:none;stroke:#ffffff;stroke-width:0.24975;stroke-linecap:round;stroke-linejoin:round;stroke-miterlimit:4;stroke-dasharray:none;stroke-opacity:1"
           d="m 49.688,129.188 6.843,-13.313 9.282,20.531 z" /></g><g
         transform="matrix(1,0,0,-1,0,193.5)"
         id="g4569"><path
           id="path4571"
           style="fill:none;stroke:#ffffff;stroke-width:0.24975;stroke-linecap:round;stroke-linejoin:round;stroke-miterlimit:4;stroke-dasharray:none;stroke-opacity:1"
           d="M 80.898,130.602 106.949,116.414 94.09,132.922 Z" /></g><g
         transform="matrix(1,0,0,-1,0,193.5)"
         id="g4573"><path
           id="path4575"
           style="fill:none;stroke:#ffffff;stroke-width:0.24975;stroke-linecap:round;stroke-linejoin:round;stroke-miterlimit:4;stroke-dasharray:none;stroke-opacity:1"
           d="m 95.414,70.375 -8.121,-14.352 21.414,6.563 z" /></g><path
         id="path4577"
         style="fill:#ffffff;fill-opacity:1;fill-rule:nonzero;stroke:none"
         d="m 41.438,76.957 -0.176,1.742 -1.75,0.121 1.746,0.176 0.121,1.75 0.172,-1.746 1.75,-0.121 -1.746,-0.172 z" /><path
         id="path4579"
         style="fill:#ffffff;fill-opacity:1;fill-rule:nonzero;stroke:none"
         d="m 80.945,47.258 -0.175,1.746 -1.747,0.117 1.743,0.176 0.121,1.75 0.176,-1.746 1.75,-0.121 -1.747,-0.172 z" /><path
         id="path4581"
         style="fill:#2d87b5;fill-opacity:1;fill-rule:nonzero;stroke:none"
         d="m 104.863,103.289 c 0,0 -2.152,0.047 -3.633,0.047 -2.304,0.105 -5.242,0.027 -5.355,-4.031 0.074,-1.098 0.582,-2.032 1.531,-2.797 0.949,-0.766 1.899,-1.5 2.848,-2.207 0.949,-0.703 2.402,-1.465 2.473,-2.375 0.296,-1.25 -1.145,-2.957 -3.161,-2.606 -1.269,0.145 -2.742,0.391 -3.636,1.078 l 0.027,-2.433 c 0,0 1.938,-0.035 3.609,-0.047 1.633,0 3,-0.152 3.723,0.379 1.086,0.683 2,2.351 2.043,3.703 -0.035,0.973 -0.367,1.805 -1.004,2.496 -0.633,0.688 -1.367,1.305 -2.203,1.848 -0.836,0.543 -1.574,1.082 -2.207,1.621 -0.637,0.539 -1.383,1.164 -1.555,1.816 -0.492,1.875 1.629,2.071 2.77,2.153 0.988,0.074 2.601,-0.079 3.699,-0.981 z" /><path
         id="path4583"
         style="fill:#2d87b5;fill-opacity:1;fill-rule:nonzero;stroke:none"
         d="m 43.027,95.086 -0.066,-7.191 c 0,0 -3.137,0 -5.004,-0.02 -1.266,0 -2.371,0.332 -3.312,0.996 -0.942,0.664 -1.649,1.609 -2.125,2.844 -0.473,1.234 -0.707,2.574 -0.707,4.023 0,1.575 0.261,2.969 0.792,4.192 0.528,1.222 1.301,2.16 2.321,2.812 0.777,0.504 2.765,0.567 2.765,0.567 0,0 4.473,-0.157 5.289,-0.012 L 43,101.09 c -5.02,2.433 -8.566,-0.598 -8.379,-6.125 0.152,-2.274 1.219,-4.949 3.676,-5.344 1.5,-0.242 1.738,-0.187 2.351,-0.234 l 0.063,5.683 c 0,0 -1.5,-0.023 2.316,0.016 z" /><path
         id="path4585"
         style="fill:#2d87b5;fill-opacity:1;fill-rule:nonzero;stroke:none"
         d="m 43.879,87.902 v 15.336 h 5.598 c 1.406,0 2.429,-0.136 3.066,-0.414 0.637,-0.273 1.148,-0.765 1.531,-1.469 0.383,-0.703 0.574,-1.511 0.574,-2.417 0,-1.149 -0.289,-2.098 -0.871,-2.848 -0.578,-0.75 -3.464,-1.352 -3.464,-1.352 l 5.406,-6.836 h -3.18 c 0,0 -4.871,5.758 -6.035,7.43 l 0.035,-7.43 z m 2.66,7.758 c 0,0 3.449,0.313 4.356,1.215 0.316,0.125 0.566,0.406 0.746,0.715 0.179,0.305 0.269,0.691 0.269,1.148 0,0.52 -0.117,0.934 -0.355,1.254 -0.887,1.844 -3.012,1.844 -5.016,1.778 z" /><path
         id="path4587"
         style="fill:#2d87b5;fill-opacity:1;fill-rule:nonzero;stroke:none"
         d="M 69.449,88 H 66.563 L 62.18,100.898 57.953,87.965 56.266,88 l 5.117,15.305 h 2.805 z" /><path
         id="path4589"
         style="fill:#2d87b5;fill-opacity:1;fill-rule:nonzero;stroke:none"
         d="m 70.215,87.945 v 15.434 h 2.601 l 6.266,-10.258 0.094,10.223 1.551,0.035 V 87.945 H 78.043 L 71.762,98.48 71.809,87.965 Z" /><path
         id="path4591"
         style="fill:#2d87b5;fill-opacity:1;fill-rule:nonzero;stroke:none"
         d="m 124.004,88.051 v 13.84 h -3.848 v 1.527 l 10.282,-0.02 0.023,-1.507 h -3.84 v -13.84 z" /><path
         id="path4593"
         style="fill:#2d87b5;fill-opacity:1;fill-rule:nonzero;stroke:none"
         d="M 94.762,88 H 91.875 L 87.492,100.898 83.266,87.965 81.578,88 86.695,103.305 H 89.5 Z" /><path
         id="path4595"
         style="fill:#2d87b5;fill-opacity:1;fill-rule:nonzero;stroke:none"
         d="m 119.977,88 h -2.887 l -4.383,12.898 -4.227,-12.933 -1.687,0.035 5.117,15.305 h 2.805 z" /><path
         id="path4597"
         style="fill:#2d87b5;fill-opacity:1;fill-rule:nonzero;stroke:none"
         d="m 110.445,64.363 c 1.243,0.196 2.391,0.528 3.446,0.985 11.246,4.859 6.754,22.933 -10.032,40.382 -6.269,6.512 -13.351,12.036 -20.367,16.125 6.317,-4.058 12.617,-9.257 18.258,-15.304 16.785,-18.012 21.277,-36.68 10.031,-41.696 -0.426,-0.191 -0.883,-0.347 -1.336,-0.492 z" /><path
         id="path4599"
         style="fill:#e20000;fill-opacity:1;fill-rule:nonzero;stroke:none"
         d="m 89.191,90.113 c -0.644,-0.843 -1.746,-1.156 -2.253,-0.929 -0.508,0.23 -0.465,1.339 0.718,2.074 11.371,8.101 8.887,8.117 1.535,-1.145 z" /><path
         id="path4601"
         style="fill:#e20000;fill-opacity:1;fill-rule:nonzero;stroke:none"
         d="m 50.703,115.652 3.75,-0.925 -2.176,-2.161 -3.961,1 z" /><text
         id="text4605"
         style="font-variant:normal;font-weight:normal;font-size:7.54729939px;font-family:'Malgun Gothic';-inkscape-font-specification:MalgunGothicBold;writing-mode:lr-tb;fill:#ffffff;fill-opacity:1;fill-rule:nonzero;stroke:none"
         transform="matrix(-0.41969755,-0.89021539,-0.90766402,0.4138328,133.22285,72.498203)"><tspan
           id="tspan4603"
           y="0"
           x="0">U</tspan></text>
<text
         id="text4609"
         style="font-variant:normal;font-weight:normal;font-size:7.54729939px;font-family:'Malgun Gothic';-inkscape-font-specification:MalgunGothicBold;writing-mode:lr-tb;fill:#ffffff;fill-opacity:1;fill-rule:nonzero;stroke:none"
         transform="matrix(-0.5362962,-0.82751242,-0.84402985,0.52817064,129.61017,65.315307)"><tspan
           id="tspan4607"
           y="0"
           x="0">n</tspan></text>
<text
         id="text4613"
         style="font-variant:normal;font-weight:normal;font-size:7.54729939px;font-family:'Malgun Gothic';-inkscape-font-specification:MalgunGothicBold;writing-mode:lr-tb;fill:#ffffff;fill-opacity:1;fill-rule:nonzero;stroke:none"
         transform="matrix(-0.62125997,-0.76802293,-0.78360453,0.61145871,125.55146,59.425688)"><tspan
           id="tspan4611"
           y="0"
           x="0">i</tspan></text>
<text
         id="text4617"
         style="font-variant:normal;font-weight:normal;font-size:7.54729986px;font-family:'Malgun Gothic';-inkscape-font-specification:MalgunGothicBold;writing-mode:lr-tb;fill:#ffffff;fill-opacity:1;fill-rule:nonzero;stroke:none"
         transform="matrix(-0.69615574,-0.70336176,-0.71789079,0.68485262,122.54623,55.841987)"><tspan
           id="tspan4615"
           y="0"
           x="0">v</tspan></text>
<text
         id="text4621"
         style="font-variant:normal;font-weight:normal;font-size:7.54729939px;font-family:'Malgun Gothic';-inkscape-font-specification:MalgunGothicBold;writing-mode:lr-tb;fill:#ffffff;fill-opacity:1;fill-rule:nonzero;stroke:none"
         transform="matrix(-0.77547261,-0.61827665,-0.63138121,0.76254508,117.7679,51.230285)"><tspan
           id="tspan4619"
           y="0"
           x="0">e</tspan></text>
<text
         id="text4625"
         style="font-variant:normal;font-weight:normal;font-size:7.54729986px;font-family:'Malgun Gothic';-inkscape-font-specification:MalgunGothicBold;writing-mode:lr-tb;fill:#ffffff;fill-opacity:1;fill-rule:nonzero;stroke:none"
         transform="matrix(-0.83877827,-0.53283243,-0.54447315,0.82451847,112.37905,47.154989)"><tspan
           id="tspan4623"
           y="0"
           x="0">r</tspan></text>
<text
         id="text4629"
         style="font-variant:normal;font-weight:normal;font-size:7.54729939px;font-family:'Malgun Gothic';-inkscape-font-specification:MalgunGothicBold;writing-mode:lr-tb;fill:#ffffff;fill-opacity:1;fill-rule:nonzero;stroke:none"
         transform="matrix(-0.88960033,-0.4466028,-0.4567398,0.8742351,107.59056,44.255551)"><tspan
           id="tspan4627"
           y="0"
           x="0">s</tspan></text>
<text
         id="text4633"
         style="font-variant:normal;font-weight:normal;font-size:7.54729986px;font-family:'Malgun Gothic';-inkscape-font-specification:MalgunGothicBold;writing-mode:lr-tb;fill:#ffffff;fill-opacity:1;fill-rule:nonzero;stroke:none"
         transform="matrix(-0.92836475,-0.36301261,-0.37167041,0.91212,102.05347,41.649206)"><tspan
           id="tspan4631"
           y="0"
           x="0">i</tspan></text>
<text
         id="text4637"
         style="font-variant:normal;font-weight:normal;font-size:7.54729939px;font-family:'Malgun Gothic';-inkscape-font-specification:MalgunGothicBold;writing-mode:lr-tb;fill:#ffffff;fill-opacity:1;fill-rule:nonzero;stroke:none"
         transform="matrix(-0.95757681,-0.28098964,-0.28817817,0.94063048,97.624733,40.022244)"><tspan
           id="tspan4635"
           y="0"
           x="0">t</tspan></text>
<text
         id="text4641"
         style="font-variant:normal;font-weight:normal;font-size:7.54729939px;font-family:'Malgun Gothic';-inkscape-font-specification:MalgunGothicBold;writing-mode:lr-tb;fill:#ffffff;fill-opacity:1;fill-rule:nonzero;stroke:none"
         transform="matrix(-0.98262102,-0.18026117,-0.18562309,0.96501141,92.271603,38.564211)"><tspan
           id="tspan4639"
           y="0"
           x="0">y</tspan></text>
<text
         id="text4645"
         style="font-variant:normal;font-weight:normal;font-size:7.54729939px;font-family:'Malgun Gothic';-inkscape-font-specification:MalgunGothicBold;writing-mode:lr-tb;fill:#ffffff;fill-opacity:1;fill-rule:nonzero;stroke:none"
         transform="matrix(-0.9973142,0.07389636,0.07324196,0.97891795,77.714277,37.223784)"><tspan
           id="tspan4643"
           y="0"
           x="0">o</tspan></text>
<text
         id="text4649"
         style="font-variant:normal;font-weight:normal;font-size:7.54729986px;font-family:'Malgun Gothic';-inkscape-font-specification:MalgunGothicBold;writing-mode:lr-tb;fill:#ffffff;fill-opacity:1;fill-rule:nonzero;stroke:none"
         transform="matrix(-0.98297963,0.18231871,0.18371458,0.96462472,70.426839,37.960359)"><tspan
           id="tspan4647"
           y="0"
           x="0">f</tspan></text>
<text
         id="text4653"
         style="font-variant:normal;font-weight:normal;font-size:7.54729986px;font-family:'Malgun Gothic';-inkscape-font-specification:MalgunGothicBold;writing-mode:lr-tb;fill:#ffffff;fill-opacity:1;fill-rule:nonzero;stroke:none"
         transform="matrix(-0.90558892,0.418206,0.42415647,0.88816931,57.513441,41.536282)"><tspan
           id="tspan4651"
           y="0"
           x="0">G</tspan></text>
<text
         id="text4657"
         style="font-variant:normal;font-weight:normal;font-size:7.54729986px;font-family:'Malgun Gothic';-inkscape-font-specification:MalgunGothicBold;writing-mode:lr-tb;fill:#ffffff;fill-opacity:1;fill-rule:nonzero;stroke:none"
         transform="matrix(-0.84913959,0.52020181,0.5281685,0.83254491,50.273493,45.128096)"><tspan
           id="tspan4655"
           y="0"
           x="0">r</tspan></text>
<text
         id="text4661"
         style="font-variant:normal;font-weight:normal;font-size:7.54729939px;font-family:'Malgun Gothic';-inkscape-font-specification:MalgunGothicBold;writing-mode:lr-tb;fill:#ffffff;fill-opacity:1;fill-rule:nonzero;stroke:none"
         transform="matrix(-0.78741675,0.60671595,0.61642101,0.77177499,45.551602,48.150997)"><tspan
           id="tspan4659"
           y="0"
           x="0">a</tspan></text>
<text
         id="text4665"
         style="font-variant:normal;font-weight:normal;font-size:7.54729939px;font-family:'Malgun Gothic';-inkscape-font-specification:MalgunGothicBold;writing-mode:lr-tb;fill:#ffffff;fill-opacity:1;fill-rule:nonzero;stroke:none"
         transform="matrix(-0.70654052,0.69613601,0.70767258,0.69219632,40.326276,52.360301)"><tspan
           id="tspan4663"
           y="0"
           x="0">n</tspan></text>
<text
         id="text4669"
         style="font-variant:normal;font-weight:normal;font-size:7.54729986px;font-family:'Malgun Gothic';-inkscape-font-specification:MalgunGothicBold;writing-mode:lr-tb;fill:#ffffff;fill-opacity:1;fill-rule:nonzero;stroke:none"
         transform="matrix(-0.61550345,0.77494325,0.78813419,0.60266402,35.328861,57.530101)"><tspan
           id="tspan4667"
           y="0"
           x="0">a</tspan></text>
<text
         id="text4673"
         style="font-variant:normal;font-weight:normal;font-size:7.54729939px;font-family:'Malgun Gothic';-inkscape-font-specification:MalgunGothicBold;writing-mode:lr-tb;fill:#ffffff;fill-opacity:1;fill-rule:nonzero;stroke:none"
         transform="matrix(-0.51494261,0.84256828,0.85722465,0.50380525,31.286246,62.848361)"><tspan
           id="tspan4671"
           y="0"
           x="0">d</tspan></text>
<text
         id="text4677"
         style="font-variant:normal;font-weight:normal;font-size:7.54729939px;font-family:'Malgun Gothic';-inkscape-font-specification:MalgunGothicBold;writing-mode:lr-tb;fill:#ffffff;fill-opacity:1;fill-rule:nonzero;stroke:none"
         transform="matrix(-0.40713794,0.89746735,0.91336668,0.39786098,27.639571,69.160107)"><tspan
           id="tspan4675"
           y="0"
           x="0">a</tspan></text>
<text
         id="text4681"
         style="font-variant:normal;font-weight:normal;font-size:7.43613243px;font-family:'Malgun Gothic';-inkscape-font-specification:MalgunGothicBold;writing-mode:lr-tb;fill:#ffffff;fill-opacity:1;fill-rule:nonzero;stroke:none"
         transform="matrix(0.16932552,0.98130057,0.98556018,-0.16878841,23.250153,104.77094)"><tspan
           id="tspan4679"
           y="0"
           x="0">A</tspan></text>
<text
         id="text4685"
         style="font-variant:normal;font-weight:normal;font-size:7.43613195px;font-family:'Malgun Gothic';-inkscape-font-specification:MalgunGothicBold;writing-mode:lr-tb;fill:#ffffff;fill-opacity:1;fill-rule:nonzero;stroke:none"
         transform="matrix(0.29305451,0.95193873,0.95609573,-0.29198124,24.775713,112.4302)"><tspan
           id="tspan4683"
           y="0"
           x="0">e</tspan></text>
<text
         id="text4689"
         style="font-variant:normal;font-weight:normal;font-size:7.43613195px;font-family:'Malgun Gothic';-inkscape-font-specification:MalgunGothicBold;writing-mode:lr-tb;fill:#ffffff;fill-opacity:1;fill-rule:nonzero;stroke:none"
         transform="matrix(0.39464671,0.91481634,0.91883294,-0.39313046,26.906184,118.76404)"><tspan
           id="tspan4687"
           y="0"
           x="0">r</tspan></text>
<text
         id="text4693"
         style="font-variant:normal;font-weight:normal;font-size:7.43613243px;font-family:'Malgun Gothic';-inkscape-font-specification:MalgunGothicBold;writing-mode:lr-tb;fill:#ffffff;fill-opacity:1;fill-rule:nonzero;stroke:none"
         transform="matrix(0.49564718,0.86470369,0.86852396,-0.4936881,29.188687,123.80092)"><tspan
           id="tspan4691"
           y="0"
           x="0">o</tspan></text>
<text
         id="text4697"
         style="font-variant:normal;font-weight:normal;font-size:7.43613243px;font-family:'Malgun Gothic';-inkscape-font-specification:MalgunGothicBold;writing-mode:lr-tb;fill:#ffffff;fill-opacity:1;fill-rule:nonzero;stroke:none"
         transform="matrix(0.59365375,0.80115516,0.80472059,-0.59126205,32.927396,129.94715)"><tspan
           id="tspan4695"
           y="0"
           x="0">s</tspan></text>
<text
         id="text4701"
         style="font-variant:normal;font-weight:normal;font-size:7.43613243px;font-family:'Malgun Gothic';-inkscape-font-specification:MalgunGothicBold;writing-mode:lr-tb;fill:#ffffff;fill-opacity:1;fill-rule:nonzero;stroke:none"
         transform="matrix(0.68347855,0.72670855,0.7299706,-0.68068718,36.617983,134.73026)"><tspan
           id="tspan4699"
           y="0"
           x="0">p</tspan></text>
<text
         id="text4705"
         style="font-variant:normal;font-weight:normal;font-size:7.43613243px;font-family:'Malgun Gothic';-inkscape-font-specification:MalgunGothicBold;writing-mode:lr-tb;fill:#ffffff;fill-opacity:1;fill-rule:nonzero;stroke:none"
         transform="matrix(0.76701876,0.63872559,0.64162468,-0.76385206,41.719887,139.89503)"><tspan
           id="tspan4703"
           y="0"
           x="0">a</tspan></text>
<text
         id="text4709"
         style="font-variant:normal;font-weight:normal;font-size:7.43613243px;font-family:'Malgun Gothic';-inkscape-font-specification:MalgunGothicBold;writing-mode:lr-tb;fill:#ffffff;fill-opacity:1;fill-rule:nonzero;stroke:none"
         transform="matrix(0.83421605,0.5489125,0.55143774,-0.83074382,46.922098,144.0213)"><tspan
           id="tspan4707"
           y="0"
           x="0">c</tspan></text>
<text
         id="text4713"
         style="font-variant:normal;font-weight:normal;font-size:7.43613243px;font-family:'Malgun Gothic';-inkscape-font-specification:MalgunGothicBold;writing-mode:lr-tb;fill:#ffffff;fill-opacity:1;fill-rule:nonzero;stroke:none"
         transform="matrix(0.89119851,0.45149681,0.4536135,-0.88746324,52.205688,147.33705)"><tspan
           id="tspan4711"
           y="0"
           x="0">e</tspan></text>
<text
         id="text4717"
         style="font-variant:normal;font-weight:normal;font-size:7.43613243px;font-family:'Malgun Gothic';-inkscape-font-specification:MalgunGothicBold;writing-mode:lr-tb;fill:#ffffff;fill-opacity:1;fill-rule:nonzero;stroke:none"
         transform="matrix(0.97943012,0.20073029,0.20178366,-0.97526801,65.692461,152.70977)"><tspan
           id="tspan4715"
           y="0"
           x="0">G</tspan></text>
<text
         id="text4721"
         style="font-variant:normal;font-weight:normal;font-size:7.43613291px;font-family:'Malgun Gothic';-inkscape-font-specification:MalgunGothicBold;writing-mode:lr-tb;fill:#ffffff;fill-opacity:1;fill-rule:nonzero;stroke:none"
         transform="matrix(0.99651689,0.08284212,0.08339119,-0.99225876,73.556889,154.08821)"><tspan
           id="tspan4719"
           y="0"
           x="0">r</tspan></text>
<text
         id="text4725"
         style="font-variant:normal;font-weight:normal;font-size:7.43613243px;font-family:'Malgun Gothic';-inkscape-font-specification:MalgunGothicBold;writing-mode:lr-tb;fill:#ffffff;fill-opacity:1;fill-rule:nonzero;stroke:none"
         transform="matrix(0.99958789,-0.02877504,-0.02870632,-0.99529507,79.095057,154.44798)"><tspan
           id="tspan4723"
           y="0"
           x="0">o</tspan></text>
<text
         id="text4729"
         style="font-variant:normal;font-weight:normal;font-size:7.43613243px;font-family:'Malgun Gothic';-inkscape-font-specification:MalgunGothicBold;writing-mode:lr-tb;fill:#ffffff;fill-opacity:1;fill-rule:nonzero;stroke:none"
         transform="matrix(0.98829293,-0.15210367,-0.15256829,-0.98402485,86.304947,154.07475)"><tspan
           id="tspan4727"
           y="0"
           x="0">u</tspan></text>
<text
         id="text4733"
         style="font-variant:normal;font-weight:normal;font-size:7.43613243px;font-family:'Malgun Gothic';-inkscape-font-specification:MalgunGothicBold;writing-mode:lr-tb;fill:#ffffff;fill-opacity:1;fill-rule:nonzero;stroke:none"
         transform="matrix(0.96132487,-0.27442021,-0.27541696,-0.95714877,93.342199,152.8315)"><tspan
           id="tspan4731"
           y="0"
           x="0">p</tspan></text>
<text
         id="text4737"
         style="font-variant:normal;font-weight:normal;font-size:7.43613243px;font-family:'Malgun Gothic';-inkscape-font-specification:MalgunGothicBold;writing-mode:lr-tb;fill:#ffffff;fill-opacity:1;fill-rule:nonzero;stroke:none"
         transform="matrix(0.8512503,-0.5226725,-0.52475988,-0.84749848,107.40907,147.39083)"><tspan
           id="tspan4735"
           y="0"
           x="0">G</tspan></text>
<text
         id="text4741"
         style="font-variant:normal;font-weight:normal;font-size:7.43613243px;font-family:'Malgun Gothic';-inkscape-font-specification:MalgunGothicBold;writing-mode:lr-tb;fill:#ffffff;fill-opacity:1;fill-rule:nonzero;stroke:none"
         transform="matrix(0.78283905,-0.61970573,-0.62222425,-0.77936198,114.08404,143.02476)"><tspan
           id="tspan4739"
           y="0"
           x="0">r</tspan></text>
<text
         id="text4745"
         style="font-variant:normal;font-weight:normal;font-size:7.43613195px;font-family:'Malgun Gothic';-inkscape-font-specification:MalgunGothicBold;writing-mode:lr-tb;fill:#ffffff;fill-opacity:1;fill-rule:nonzero;stroke:none"
         transform="matrix(0.71201183,-0.69929258,-0.70216747,-0.70882321,118.35843,139.50049)"><tspan
           id="tspan4743"
           y="0"
           x="0">a</tspan></text>
<text
         id="text4749"
         style="font-variant:normal;font-weight:normal;font-size:7.43613243px;font-family:'Malgun Gothic';-inkscape-font-specification:MalgunGothicBold;writing-mode:lr-tb;fill:#ffffff;fill-opacity:1;fill-rule:nonzero;stroke:none"
         transform="matrix(0.62247521,-0.77940222,-0.78263952,-0.61965519,122.99411,134.74775)"><tspan
           id="tspan4747"
           y="0"
           x="0">n</tspan></text>
<text
         id="text4753"
         style="font-variant:normal;font-weight:normal;font-size:7.43613195px;font-family:'Malgun Gothic';-inkscape-font-specification:MalgunGothicBold;writing-mode:lr-tb;fill:#ffffff;fill-opacity:1;fill-rule:nonzero;stroke:none"
         transform="matrix(0.52395198,-0.84819529,-0.85174781,-0.52154132,127.30606,129.07325)"><tspan
           id="tspan4751"
           y="0"
           x="0">a</tspan></text>
<text
         id="text4757"
         style="font-variant:normal;font-weight:normal;font-size:7.43613291px;font-family:'Malgun Gothic';-inkscape-font-specification:MalgunGothicBold;writing-mode:lr-tb;fill:#ffffff;fill-opacity:1;fill-rule:nonzero;stroke:none"
         transform="matrix(0.42005221,-0.90368828,-0.90749994,-0.41807632,130.66404,123.35432)"><tspan
           id="tspan4755"
           y="0"
           x="0">S</tspan></text>
<text
         id="text4761"
         style="font-variant:normal;font-weight:normal;font-size:7.43613195px;font-family:'Malgun Gothic';-inkscape-font-specification:MalgunGothicBold;writing-mode:lr-tb;fill:#ffffff;fill-opacity:1;fill-rule:nonzero;stroke:none"
         transform="matrix(0.29974884,-0.94998393,-0.95401815,-0.29828007,133.40886,117.12763)"><tspan
           id="tspan4759"
           y="0"
           x="0">A</tspan></text>
<text
         id="text4765"
         style="font-variant:normal;font-weight:normal;font-size:7.43613243px;font-family:'Malgun Gothic';-inkscape-font-specification:MalgunGothicBold;writing-mode:lr-tb;fill:#ffffff;fill-opacity:1;fill-rule:nonzero;stroke:none"
         transform="matrix(0.17287831,-0.9807519,-0.98494319,-0.17194772,135.56811,109.61982)"><tspan
           id="tspan4763"
           y="0"
           x="0">T</tspan></text>
<path
         id="path4767"
         style="fill:#ffffff;fill-opacity:1;fill-rule:evenodd;stroke:none"
         d="m 48.313,113.574 3.976,-0.98 v -3.844 l -3.984,1.223 z" /></g></g></svg>